<?xml version="1.0" encoding="utf-8"?>
<!-- Generator: Adobe Illustrator 24.0.1, SVG Export Plug-In . SVG Version: 6.00 Build 0)  -->
<svg version="1.1" id="Layer_1" xmlns="http://www.w3.org/2000/svg" xmlns:xlink="http://www.w3.org/1999/xlink" x="0px" y="0px"
	 viewBox="0 0 100 100" style="enable-background:new 0 0 100 100;" xml:space="preserve">
<style type="text/css">
	.st0{fill-rule:evenodd;clip-rule:evenodd;fill:#0090D4;}
	.st1{fill:none;stroke:#FFFFFF;stroke-width:0.6065;stroke-miterlimit:10;}
	.st2{fill:none;stroke:#231F20;stroke-width:0.0616;stroke-miterlimit:2.613;}
	.st3{fill-rule:evenodd;clip-rule:evenodd;fill:#231F20;}
	.st4{fill-rule:evenodd;clip-rule:evenodd;fill:#FFFFFF;}
	.st5{fill:#231F20;}
	.st6{fill-rule:evenodd;clip-rule:evenodd;fill:#FBD106;}
</style>
<g>
	<path class="st0" d="M50.04,2.2C73.49,8.74,84.45,16.88,96.98,36.3C98,60.64,93.65,73.56,79.05,91.49
		c-22.83,8.49-36.47,8.35-58.03,0C5.9,72.4,1.82,59.38,3.1,36.3C16.57,16.02,27.69,8.11,50.04,2.2"/>
	<path class="st1" d="M50.04,2.2C73.49,8.74,84.45,16.88,96.98,36.3C98,60.64,93.65,73.56,79.05,91.49
		c-22.83,8.49-36.47,8.35-58.03,0C5.9,72.4,1.82,59.38,3.1,36.3C16.57,16.02,27.69,8.11,50.04,2.2"/>
	<polyline class="st2" points="17.32,40.97 16.27,42.48 14.22,45.57 12.86,49.52 12.14,51.2 12.27,53.98 13.41,55.89 13.81,58.11 
		14.36,59.66 15.59,61.94 15.5,63.12 15.78,64.35 16.73,66.08 17.64,67.21 17.91,68.58 	"/>
	<path class="st3" d="M50.04,78.78c-1.95-0.52-3.92-1.46-5.66-2.73c-0.36-0.27-0.71-0.55-1.05-0.85c-0.13-0.11-0.26-0.23-0.39-0.35
		c-2.25,0.91-5.49,1.95-8.79,2.54c-2.76,0.49-5.59,0.66-7.95,0.18c-2.46-0.5-4.42-1.7-5.35-3.97c-0.15-0.38-0.28-0.81-0.37-1.25
		c0,0,0,0,0,0c-1.9-1.26-2.83-2.78-3.13-4.01c-0.07-0.26-0.11-0.51-0.12-0.74c-0.01-0.13-0.01-0.26,0-0.39
		c-1.3-1.29-2.1-2.63-2.2-3.88c-0.02-0.26-0.01-0.53,0.04-0.8c0.03-0.15,0.06-0.3,0.1-0.44h0l0,0l0.01-0.01
		c-0.65-0.77-1.17-1.56-1.52-2.47c-0.37-0.95-0.55-2.02-0.5-3.32c-2.32-2.13-2.03-5.47-0.61-8.3c1.66-3.31,3.89-6.45,4.86-9.23
		c0.54-1.55,0.96-0.58,0.96-0.1c0,2.31-0.37,4.79-0.84,7.01c-0.05,0.23-0.1,0.47-0.26,1.23c-0.23,1.14-0.23,2.21,0.09,2.98
		c0.13,0.31,0.32,0.58,0.57,0.79c0.25,0.21,0.56,0.36,0.95,0.44c0.9,0.18,2.17-0.02,3.89-0.74c4.19-1.76,8.24-3.31,11.13-3.5
		c3.22-0.22,5.1,1.07,4.48,5.16c-0.08,0.56-0.18,1.15-0.26,1.66c-0.23,1.38-0.36,2.14-0.27,2.89c0.06,0.55,0.21,1.19,0.61,1.83
		c0.33,0.54,0.84,1.09,1.61,1.63c0.04-0.11,0.08-0.22,0.12-0.33c-0.23-2.33,0-4.66,0.99-6.86c0.18-0.39,0.37-0.77,0.6-1.15
		l-4.51-21.97c-0.31-1.51-0.66-2.45-1.26-2.9c-0.79-0.59-2.11-0.42-3.02-0.27c-0.78,0.13-0.78-0.32-0.23-0.64
		c0.84-0.47,1.87-1.16,2.79-1.77c1.65-1.1,3.32-2.08,5.18-0.68c0.23-1.58,1.48-2.4,2.65-3.21c0.34-0.25,1.18-0.73,1.64-1.39
		c0.42-0.61,0.92-0.83,1-0.11c0.02,0.19,0.09,0.57,0.15,0.98c0.85-0.92,2.11-1.44,2.94-2.33c0.47-0.5,0.49-0.98,0.94-1
		c0.44,0.03,0.46,0.5,0.93,1c0.83,0.89,2.1,1.41,2.94,2.33c0.06-0.41,0.13-0.79,0.15-0.98c0.08-0.72,0.58-0.5,1,0.11
		c0.46,0.65,1.3,1.13,1.64,1.39c1.17,0.82,2.42,1.64,2.65,3.21c1.85-1.4,3.52-0.42,5.18,0.68c0.92,0.61,1.95,1.29,2.79,1.77
		c0.55,0.32,0.55,0.77-0.23,0.64c-0.9-0.15-2.22-0.32-3.02,0.27c-0.6,0.45-0.94,1.39-1.25,2.9l-4.51,21.97
		c0.22,0.38,0.42,0.77,0.6,1.15c0.98,2.19,1.22,4.52,0.99,6.86c0.04,0.1,0.08,0.22,0.12,0.33c0.78-0.54,1.28-1.09,1.61-1.63
		c0.39-0.64,0.54-1.28,0.61-1.83c0.09-0.74-0.03-1.51-0.26-2.89c-0.09-0.51-0.19-1.1-0.27-1.66c-0.62-4.09,1.26-5.38,4.48-5.16
		c2.89,0.19,6.94,1.75,11.14,3.5c1.72,0.72,2.99,0.92,3.89,0.74c0.39-0.08,0.7-0.23,0.95-0.44c0.25-0.21,0.44-0.48,0.56-0.79
		c0.32-0.78,0.33-1.84,0.09-2.98c-0.16-0.76-0.2-1-0.26-1.23c-0.46-2.22-0.84-4.7-0.84-7.01c0-0.48,0.42-1.44,0.96,0.1
		c0.97,2.78,3.19,5.92,4.85,9.23c1.43,2.83,1.72,6.17-0.61,8.3c0.06,1.3-0.12,2.37-0.5,3.32c-0.34,0.91-0.87,1.69-1.52,2.47
		l0.01,0.01l0,0h0c0.04,0.14,0.08,0.29,0.11,0.44c0.04,0.27,0.05,0.54,0.03,0.8c-0.1,1.25-0.9,2.58-2.2,3.88
		c0.01,0.13,0.01,0.25,0,0.39c-0.01,0.22-0.05,0.48-0.12,0.74c-0.3,1.23-1.24,2.75-3.13,4.01c0,0,0,0,0,0
		c-0.09,0.45-0.22,0.87-0.38,1.25c-0.92,2.27-2.89,3.47-5.35,3.97c-2.37,0.49-5.19,0.31-7.95-0.18c-3.3-0.59-6.53-1.63-8.79-2.54
		c-0.13,0.12-0.26,0.24-0.39,0.35c-0.35,0.3-0.7,0.58-1.05,0.85C53.96,77.32,51.98,78.25,50.04,78.78"/>
	<path class="st4" d="M48.84,43.93c0.43,0.54,0.87,1.1,1.2,1.77c0.33-0.68,0.77-1.23,1.19-1.77c0.67-0.84,1.31-1.65,1.34-2.87
		c0.03-1.25-0.71-2.28-1.44-3.31c-0.39-0.55-0.79-1.1-1.09-1.7c-0.31,0.6-0.7,1.15-1.09,1.7c-0.74,1.03-1.47,2.06-1.44,3.31
		C47.53,42.27,48.17,43.08,48.84,43.93"/>
	<path class="st4" d="M21.01,71.46c1.03,0.45,1.98,0.68,2.93,0.78c0.86,0.09,1.74,0.08,2.69,0.04c0.65-0.03,0.72,1.03-0.02,1.06
		c-0.96,0.05-1.87,0.05-2.79-0.05c-0.7-0.07-1.4-0.21-2.12-0.44c0.04,0.13,0.09,0.25,0.14,0.38c0.77,1.89,2.45,2.9,4.58,3.33
		c2.21,0.45,4.9,0.28,7.56-0.18c2.77-0.49,5.48-1.3,7.58-2.09c-3.14-0.58-5.57-1.65-7.25-3.28c-1.89-1.84-2.8-4.38-2.61-7.7
		c0.12-2.17,0.78-4.39,1.39-6.46c0.42-1.44,0.83-2.81,1-4.01c0.32-2.21-0.23-3.84-3.22-4.3c-2.3,0.62-4.96,1.69-7.7,2.83
		c-1.93,0.81-3.42,1.02-4.51,0.8c-0.57-0.11-1.04-0.34-1.42-0.66c-0.38-0.32-0.67-0.72-0.86-1.2c-0.42-0.99-0.43-2.27-0.16-3.6
		c0.02-0.09,0.14-0.67,0.26-1.23c0.26-1.25,0.5-2.41,0.7-3.65c-0.49,0.96-1.05,1.94-1.61,2.91c-1.74,3.03-3.48,6.07-2.89,8.64
		c0.74,3.23,4.53,3.96,7.29,4.36c1.19,0.17,1.05,1.23-0.25,1.02c-1.53-0.24-3.28-0.63-4.68-1.24c-0.28-0.13-0.56-0.27-0.82-0.42
		c0.04,0.81,0.18,1.51,0.43,2.14c1.19,3.08,3.51,3.42,6.47,3.72c1.37,0.15,1.31,1.2-0.07,1.07c-1.48-0.13-3.13-0.4-4.36-0.91
		c-0.21-0.09-0.41-0.19-0.59-0.28c-0.29,1.65,1.02,3.19,2.59,3.95c1.61,0.78,3.5,0.76,4.77,0.66c0.95-0.07,0.96,1.06,0.02,1.07
		c-1.01,0.01-2.11-0.01-3.15-0.15c-0.71-0.1-1.39-0.26-2-0.5c0.01,0.08,0.03,0.15,0.05,0.23C18.63,69.13,19.41,70.38,21.01,71.46"/>
	<path class="st4" d="M46.77,48.13c-2.32,1.55-3.78,3.31-4.64,5.2c-0.65,1.45-0.94,2.97-0.97,4.53c0.6-0.89,1.31-1.71,2.03-2.53
		c1.59-1.81,3.22-3.67,3.51-6.5C46.74,48.59,46.76,48.37,46.77,48.13"/>
	<path class="st4" d="M29.97,80.44C29.98,80.41,29.97,80.43,29.97,80.44"/>
	<path class="st4" d="M79.07,71.46c-1.04,0.45-1.99,0.68-2.93,0.78c-0.86,0.09-1.74,0.08-2.69,0.04c-0.65-0.03-0.72,1.03,0.02,1.06
		c0.97,0.05,1.87,0.05,2.79-0.05c0.7-0.07,1.39-0.21,2.12-0.44c-0.04,0.13-0.08,0.25-0.14,0.38c-0.77,1.89-2.45,2.9-4.58,3.33
		c-2.22,0.45-4.9,0.28-7.55-0.18c-2.77-0.49-5.48-1.3-7.58-2.09c3.13-0.58,5.57-1.65,7.24-3.28c1.9-1.84,2.8-4.38,2.61-7.7
		c-0.12-2.17-0.78-4.39-1.39-6.46c-0.42-1.44-0.83-2.81-1-4.01c-0.31-2.21,0.23-3.84,3.22-4.3c2.29,0.62,4.96,1.69,7.7,2.83
		c1.94,0.81,3.42,1.02,4.51,0.8c0.57-0.11,1.04-0.34,1.42-0.66c0.38-0.32,0.66-0.72,0.86-1.2c0.41-0.99,0.43-2.27,0.16-3.6
		c-0.02-0.09-0.14-0.67-0.26-1.23c-0.27-1.25-0.51-2.41-0.7-3.65c0.49,0.96,1.04,1.94,1.6,2.91c1.74,3.03,3.48,6.07,2.89,8.64
		c-0.74,3.23-4.53,3.96-7.29,4.36c-1.2,0.17-1.06,1.23,0.25,1.02c1.53-0.24,3.29-0.63,4.69-1.24c0.28-0.13,0.56-0.27,0.82-0.42
		c-0.03,0.81-0.18,1.51-0.42,2.14c-1.19,3.08-3.51,3.42-6.47,3.72c-1.37,0.15-1.31,1.2,0.07,1.07c1.48-0.13,3.12-0.4,4.35-0.91
		c0.21-0.09,0.41-0.19,0.59-0.28c0.29,1.65-1.02,3.19-2.59,3.95c-1.61,0.78-3.5,0.76-4.77,0.66c-0.94-0.07-0.95,1.06-0.02,1.07
		c1.01,0.01,2.11-0.01,3.15-0.15c0.72-0.1,1.39-0.26,2-0.5c-0.01,0.08-0.03,0.15-0.05,0.23C81.45,69.13,80.67,70.38,79.07,71.46"/>
	<path class="st4" d="M53.31,48.13c2.32,1.55,3.78,3.31,4.63,5.2c0.66,1.45,0.94,2.97,0.97,4.53c-0.6-0.89-1.31-1.71-2.03-2.53
		c-1.59-1.81-3.22-3.67-3.52-6.5C53.34,48.59,53.32,48.37,53.31,48.13"/>
	<path class="st4" d="M50.04,69.87c-0.28,0-0.32,0.45-0.46,0.85c-0.13,0.37-0.28,0.7-0.47,1.04c-0.1,0.18-0.2,0.36-0.28,0.54h0
		c-0.81,1.8,0.06,3.03,1.21,4.21c1.18-1.24,2.01-2.41,1.2-4.21c-0.08-0.18-0.18-0.36-0.28-0.54c-0.19-0.34-0.35-0.67-0.47-1.04
		C50.35,70.32,50.31,69.87,50.04,69.87"/>
	<path class="st4" d="M52.18,44.82c-0.03,0.04-0.07,0.09-0.11,0.13c-0.58,0.73-1.18,1.5-1.42,2.57c-0.27,1.19-0.94,1.3-1.21,0.05
		c-0.2-0.97-0.71-1.68-1.23-2.35v0.03c-0.1-0.13-0.21-0.27-0.31-0.4c0,1.3-0.01,2.96-0.13,4.09c-0.34,3.18-2.08,5.17-3.78,7.11
		c-1.34,1.52-2.64,3.01-3.1,5l-0.16,0.71l-0.62-0.36c-1.29-0.75-2.08-1.57-2.57-2.36c-0.5-0.81-0.68-1.58-0.76-2.26
		c-0.1-0.88,0.03-1.7,0.28-3.18c0.07-0.43,0.15-0.92,0.26-1.64c0.48-3.12-0.93-4.11-3.36-3.94c-0.29,0.02-0.58,0.05-0.89,0.1
		c2.03,0.93,2.39,2.7,2.07,4.92c-0.18,1.27-0.59,2.68-1.03,4.17c-0.59,2-1.22,4.15-1.34,6.21c-0.17,3,0.62,5.26,2.29,6.88
		c1.69,1.66,4.31,2.68,7.75,3.17l0.31,0.16h0h0c0.29,0.3,0.59,0.59,0.91,0.87c0.32,0.27,0.64,0.54,0.99,0.79
		c1.14,0.84,3.49,2.59,4.87,2.56c1.44-0.02,5.17-2.56,5.17-2.56s0.67-0.52,0.99-0.79c0.31-0.27,0.62-0.56,0.91-0.87l0.31-0.16
		c3.44-0.49,6.06-1.51,7.75-3.17c1.67-1.62,2.46-3.89,2.29-6.88c-0.12-2.06-0.75-4.21-1.35-6.21c-0.43-1.49-0.85-2.9-1.03-4.17
		c-0.32-2.22,0.04-3.99,2.07-4.92c-0.31-0.05-0.61-0.08-0.89-0.1c-2.42-0.16-3.84,0.83-3.36,3.94c0.11,0.72,0.19,1.21,0.26,1.64
		c0.25,1.48,0.38,2.3,0.28,3.18c-0.08,0.67-0.27,1.45-0.76,2.26c-0.49,0.8-1.28,1.61-2.56,2.36l-0.63,0.36l-0.17-0.71
		c-0.46-1.99-1.77-3.48-3.1-5c-1.71-1.94-3.45-3.93-3.78-7.11C52.18,47.79,52.17,46.12,52.18,44.82"/>
	<path class="st4" d="M46.83,43.31c-0.23-0.5-0.38-1.07-0.4-1.75c-0.04-1.61,0.8-2.78,1.64-3.95c0.76-1.06,1.37-1.73,1.61-3.26
		c0.12-0.77,0.54-0.64,0.65,0.02c0.25,1.42,0.88,2.16,1.65,3.24c0.84,1.17,1.68,2.35,1.65,3.95c-0.02,0.69-0.17,1.25-0.4,1.75
		c0.01,1.12-0.01,2.58,0.01,3.65c1.82,1.11,3.19,2.34,4.22,3.67l0.02-0.1l4.28-20.85c0.37-1.77,0.8-2.9,1.66-3.54
		c0.33-0.25,0.72-0.41,1.16-0.5c-0.12-0.09-0.25-0.17-0.37-0.25c-1.35-0.91-2.72-1.82-4.15-0.92c-0.53,0.34-0.77,0.59-0.88,1.18
		L57.1,37.32c-0.19,0.88-1.25,0.71-1.03-0.29l2.04-11.28c0.13-0.71,0.34-1.49,0.13-2.19c-0.31-1.04-1.29-1.72-2.18-2.34
		c-0.41-0.28-0.8-0.55-1.13-0.85c-0.04,0.27-0.08,0.53-0.11,0.75h0L53.5,34.53c-0.1,0.83-1.16,0.74-1.05-0.23l1.12-11.41
		c0.11-1.15,0.17-1.7-0.69-2.52c-0.36-0.34-0.79-0.68-1.2-0.99c-0.43-0.33-0.85-0.6-1.19-0.93c-0.18-0.17-0.33-0.36-0.45-0.55
		c-0.12,0.19-0.27,0.38-0.45,0.55c-0.33,0.33-0.76,0.61-1.19,0.93c-0.41,0.32-0.84,0.65-1.2,0.99c-0.86,0.82-0.8,1.37-0.69,2.52
		l1.13,11.41c0.11,0.97-0.95,1.06-1.05,0.23l-1.32-13.41h0c-0.03-0.21-0.08-0.48-0.12-0.75c-0.33,0.3-0.72,0.57-1.13,0.85
		c-0.88,0.62-1.87,1.29-2.17,2.34c-0.21,0.71,0,1.49,0.13,2.19l2.04,11.28c0.22,1-0.84,1.17-1.03,0.29l-2.11-11.66
		c-0.11-0.6-0.35-0.85-0.88-1.18c-1.43-0.91-2.79,0.01-4.15,0.92c-0.12,0.08-0.25,0.17-0.37,0.25c0.45,0.09,0.83,0.25,1.17,0.5
		c0.85,0.64,1.29,1.77,1.66,3.54l4.28,20.85l0.02,0.1c1.02-1.32,2.4-2.56,4.21-3.67C46.84,45.89,46.82,44.43,46.83,43.31"/>
	<path class="st4" d="M50.44,86.77c1.42-0.1,2.55-0.58,3.87-1.07c2.01-0.76,3.81-1.43,7.37-0.53c0.98,0.24,2.02,0.7,3.12,1.17
		c2.31,0.99,4.85,2.09,7.83,1.84l0.28-0.95c-1.27-1-1.68-2.89-2.08-4.66c-0.1-0.47-0.2-0.93-0.33-1.41c0,0.01,0,0.01,0,0l-0.1-0.37
		l-0.38-0.03c-2.19-0.17-3.68-0.82-5.62-1.51c-0.84-0.29-1.49-0.71-2.54-1.04c-2.86-0.89-5.81-0.03-8.23,0.59
		c-1.28,0.33-2.33,1.18-3.48,1.22h-0.01l-0.07,0l-0.08,0h-0.01c-1.14-0.04-1.47-0.89-2.76-1.22c-2.43-0.62-5.05-1.28-7.91-0.39
		c-1.05,0.33-2.21,1.01-3.04,1.31c-1.94,0.69-3.47,1.14-5.44,1.05l-0.38,0.03l-0.1,0.37c0,0.01,0,0.01,0,0
		c-0.13,0.48-0.23,0.95-0.33,1.41c-0.39,1.78-0.81,3.66-2.08,4.66l0.28,0.95c2.97,0.25,5.53-0.85,7.83-1.84
		c1.1-0.47,2.15-0.92,3.12-1.17c3.56-0.9,5.36-0.22,7.37,0.53C47.89,86.2,49.02,86.68,50.44,86.77"/>
	<path class="st5" d="M71.78,88.58c-2.68,0-5.02-1.01-7.1-1.9l-0.08-0.04c-1.06-0.46-2.07-0.89-3-1.12
		c-1.12-0.28-2.1-0.42-3.02-0.42c-1.65,0-2.86,0.46-4.14,0.94c-0.14,0.05-0.27,0.1-0.41,0.15c-1.15,0.44-2.24,0.85-3.57,0.94
		l-0.02,0l-0.03,0c-1.33-0.09-2.43-0.51-3.59-0.94c-0.13-0.05-0.26-0.1-0.39-0.15c-1.28-0.48-2.49-0.94-4.14-0.94
		c-0.91,0-1.9,0.14-3.02,0.42c-0.94,0.24-1.96,0.68-3.05,1.15l-0.03,0.01c-2.07,0.89-4.42,1.9-7.1,1.9c-0.29,0-0.59-0.01-0.88-0.04
		l-0.24-0.02l-0.42-1.42l0.19-0.15c1.17-0.92,1.56-2.72,1.95-4.46l0.04-0.17c0.09-0.39,0.18-0.79,0.29-1.21v0l0.17-0.66l0.65-0.05
		l0.03,0c0.16,0.01,0.32,0.01,0.48,0.01c1.61,0,2.94-0.36,4.83-1.04c0.35-0.12,0.77-0.33,1.21-0.53c0.61-0.29,1.23-0.59,1.84-0.78
		c0.97-0.3,1.96-0.45,3.02-0.45c1.8,0,3.46,0.42,5.08,0.83c0.65,0.17,1.08,0.45,1.45,0.71c0.4,0.27,0.71,0.48,1.22,0.5h0.16
		c0.58-0.02,1.18-0.3,1.81-0.59c0.5-0.23,1.02-0.47,1.59-0.62c0.15-0.04,0.3-0.08,0.46-0.12c1.58-0.4,3.37-0.86,5.21-0.86
		c0.99,0,1.9,0.13,2.76,0.4c0.62,0.19,1.09,0.41,1.55,0.62c0.34,0.15,0.65,0.3,1,0.42c0.29,0.1,0.57,0.21,0.84,0.3
		c1.54,0.57,2.87,1.05,4.69,1.19l0.63,0.05l0.18,0.66c0.13,0.49,0.23,0.96,0.32,1.38c0.38,1.74,0.78,3.53,1.95,4.46l0.19,0.15
		l-0.42,1.42l-0.24,0.02C72.37,88.56,72.07,88.58,71.78,88.58 M58.58,84.38c0.97,0,2.02,0.14,3.19,0.44
		c0.98,0.25,2.02,0.69,3.11,1.16l0.08,0.04c2.01,0.86,4.28,1.84,6.81,1.84c0.19,0,0.39-0.01,0.59-0.02l0.15-0.49
		c-1.22-1.1-1.63-2.94-2.02-4.71c-0.09-0.43-0.2-0.91-0.33-1.4l-0.03-0.13L70,81.1c-1.91-0.14-3.29-0.65-4.88-1.23
		c-0.27-0.1-0.55-0.2-0.83-0.3c-0.38-0.13-0.71-0.29-1.06-0.45c-0.44-0.2-0.89-0.41-1.46-0.59c-0.79-0.25-1.63-0.37-2.55-0.37
		c-1.75,0-3.5,0.45-5.03,0.84c-0.16,0.04-0.31,0.08-0.46,0.12c-0.51,0.13-1,0.36-1.47,0.57c-0.7,0.32-1.36,0.63-2.09,0.65l-0.09,0
		l-0.1,0c-0.72-0.02-1.17-0.33-1.61-0.62c-0.34-0.23-0.7-0.47-1.23-0.61c-1.57-0.4-3.2-0.81-4.9-0.81c-0.99,0-1.91,0.14-2.81,0.42
		c-0.57,0.18-1.17,0.46-1.75,0.74c-0.46,0.22-0.9,0.43-1.28,0.56c-1.96,0.7-3.35,1.08-5.06,1.08c-0.16,0-0.32,0-0.49-0.01
		l-0.11,0.01l-0.03,0.1l-0.05,0.3h-0.03c-0.08,0.33-0.15,0.65-0.22,0.97l-0.04,0.17c-0.39,1.77-0.79,3.61-2.02,4.71l0.14,0.49
		c0.19,0.01,0.39,0.02,0.59,0.02c2.53,0,4.81-0.98,6.82-1.85L35.94,86c1.11-0.48,2.17-0.93,3.16-1.18c1.17-0.3,2.22-0.44,3.19-0.44
		c1.78,0,3.05,0.48,4.4,0.99c0.13,0.05,0.26,0.1,0.39,0.15c1.15,0.43,2.14,0.81,3.36,0.9c1.21-0.09,2.2-0.46,3.34-0.89
		c0.13-0.05,0.27-0.1,0.41-0.15C55.53,84.86,56.8,84.38,58.58,84.38"/>
	<path class="st5" d="M50.01,84.95L50.01,84.95 M71.64,85.05c0.07,0.18,0.15,0.36,0.25,0.54c-2.16,0.49-4.57-0.44-6.78-1.44
		c-1.66-0.75-3.32-1.5-4.9-1.57c-1.8-0.08-3.48,0.08-5.12,0.48c-1.64,0.39-3.25,1.01-4.9,1.85c-0.01,0.01-0.02,0.01-0.04,0.02
		c0,0,0,0-0.01,0.01h-0.01c0,0,0,0,0,0c0,0-0.01,0.01-0.01,0.01h0h0h0H50.1v0H50.1v0h-0.01h0h-0.01h-0.01h0c0,0,0,0,0,0h0h-0.01l0,0
		h0h-0.01h-0.01h0h-0.01c0,0,0,0,0,0h0H50H50c0,0,0,0,0,0h0h0h0h0h0h0h0v0h-0.01v0h-0.01h0h-0.01c0,0-0.01,0-0.01-0.01h-0.01l0,0h0
		c0,0,0,0-0.01,0h-0.01v0c-0.01,0-0.01-0.01-0.02-0.01c0,0,0,0-0.01-0.01c-1.65-0.83-3.26-1.45-4.9-1.85
		c-1.65-0.4-3.32-0.56-5.12-0.48c-1.59,0.07-3.1,0.82-4.59,1.56c-1.96,0.97-4.08,1.82-6.23,1.33l0.25-0.54
		c1.94,0.44,3.85-0.39,5.71-1.32c1.55-0.77,3.12-1.54,4.82-1.62c1.85-0.09,3.58,0.09,5.28,0.49c1.65,0.4,3.26,1.02,4.92,1.84
		c1.65-0.82,3.27-1.44,4.91-1.84c1.7-0.4,3.43-0.58,5.29-0.49c1.68,0.08,3.4,0.85,5.11,1.62C67.47,84.57,69.67,85.5,71.64,85.05"/>
	<rect x="49.7" y="79.79" class="st5" width="0.59" height="4.6"/>
	<path class="st5" d="M18.61,34.7c-1.88-0.89-2.82-1.34-4.7-2.23c-0.35,0.75-0.52,1.13-0.84,1.91c-0.39-0.16-0.59-0.24-0.98-0.41
		c0.89-2.14,1.39-3.16,2.49-5.07c0.37,0.21,0.55,0.32,0.92,0.53c-0.4,0.7-0.59,1.05-0.97,1.78c1.85,0.96,2.77,1.44,4.61,2.4
		C18.93,34.04,18.82,34.26,18.61,34.7"/>
	<path class="st5" d="M15.03,28.13c0.29-0.48,0.43-0.71,0.73-1.18c1.13,0.75,1.7,1.12,2.83,1.87c0.45,0.3,0.75,0.48,0.9,0.54
		c0.24,0.1,0.48,0.11,0.72,0.03c0.24-0.08,0.45-0.25,0.64-0.53c0.19-0.28,0.28-0.53,0.27-0.75c-0.02-0.23-0.1-0.42-0.25-0.58
		c-0.15-0.16-0.42-0.39-0.82-0.69c-1.11-0.84-1.66-1.25-2.77-2.09c0.32-0.44,0.49-0.65,0.82-1.07c1.02,0.83,1.54,1.24,2.56,2.07
		c0.58,0.47,0.98,0.83,1.18,1.08c0.2,0.25,0.34,0.5,0.4,0.77c0.06,0.27,0.06,0.55-0.01,0.85c-0.07,0.3-0.23,0.63-0.49,1.01
		c-0.31,0.45-0.6,0.76-0.87,0.92c-0.27,0.17-0.54,0.26-0.82,0.29c-0.28,0.02-0.53,0-0.77-0.08c-0.34-0.12-0.82-0.36-1.42-0.73
		C16.74,29.18,16.17,28.82,15.03,28.13"/>
	<path class="st5" d="M24.58,25.76c-1.52-1.42-2.29-2.13-3.81-3.55c-0.51,0.56-0.76,0.84-1.25,1.43c-0.32-0.28-0.49-0.41-0.81-0.69
		c1.35-1.62,2.07-2.37,3.57-3.76c0.29,0.31,0.43,0.47,0.72,0.78c-0.55,0.51-0.81,0.77-1.34,1.3c1.48,1.47,2.22,2.2,3.7,3.67
		C25.04,25.27,24.89,25.43,24.58,25.76"/>
	<path class="st5" d="M29.28,21.52c-1.91-1.7-2.91-2.52-4.96-4.1c0.41-0.33,0.62-0.49,1.04-0.81c1.35,1.14,2,1.73,3.29,2.93
		c-0.67-1.64-0.98-2.48-1.57-4.16c0.5-0.34,0.76-0.51,1.27-0.82c1.31,1.25,1.94,1.89,3.17,3.21c-0.59-1.68-0.87-2.53-1.39-4.25
		c0.45-0.24,0.67-0.36,1.12-0.6c0.62,2.5,0.97,3.74,1.76,6.18c-0.4,0.22-0.6,0.34-0.99,0.57c-1.34-1.38-2.03-2.06-3.47-3.36
		c0.62,1.83,0.96,2.74,1.68,4.52C29.85,21.1,29.66,21.24,29.28,21.52"/>
	<path class="st5" d="M31.82,12.64c0.45-0.22,0.68-0.33,1.14-0.54c0.57,1.23,0.86,1.85,1.43,3.08c0.23,0.49,0.39,0.8,0.48,0.93
		c0.15,0.21,0.34,0.35,0.57,0.42c0.23,0.07,0.48,0.05,0.76-0.07c0.29-0.12,0.48-0.28,0.57-0.47c0.09-0.2,0.12-0.4,0.07-0.61
		c-0.05-0.21-0.16-0.55-0.35-1.01c-0.51-1.29-0.76-1.93-1.27-3.23c0.47-0.18,0.7-0.27,1.18-0.43c0.45,1.24,0.67,1.86,1.11,3.1
		c0.26,0.71,0.4,1.22,0.45,1.53c0.05,0.31,0.04,0.6-0.04,0.85c-0.07,0.26-0.21,0.48-0.4,0.7c-0.2,0.21-0.49,0.39-0.87,0.55
		c-0.47,0.19-0.84,0.29-1.14,0.27c-0.3-0.02-0.56-0.09-0.8-0.22c-0.23-0.13-0.43-0.3-0.58-0.49c-0.22-0.29-0.49-0.75-0.81-1.38
		C32.72,14.43,32.43,13.83,31.82,12.64"/>
	<path class="st5" d="M39.58,16.26c-0.77-2.38-1.15-3.58-1.93-5.96c1-0.32,1.51-0.46,2.53-0.71c0.64-0.16,1.12-0.21,1.44-0.16
		c0.32,0.05,0.59,0.2,0.82,0.44c0.23,0.25,0.38,0.56,0.45,0.92c0.09,0.46,0.04,0.87-0.15,1.22c-0.19,0.35-0.98,0.8-0.98,0.8
		c0,0.02,0.51,0.23,0.71,0.38c0.2,0.15,0.48,0.44,0.83,0.87c0.36,0.43,0.53,0.64,0.87,1.08c-0.5,0.09-0.75,0.14-1.24,0.24
		c-0.41-0.47-0.63-0.7-1.07-1.16c-0.39-0.41-0.66-0.66-0.79-0.75c-0.13-0.1-0.27-0.15-0.4-0.17c-0.13-0.02-0.32,0.01-0.57,0.08
		c-0.09,0.02-0.13,0.04-0.22,0.06c0.29,1,0.44,1.5,0.73,2.51C40.19,16.07,39.99,16.13,39.58,16.26 M39.59,12.49
		c0.33-0.1,0.5-0.14,0.83-0.23c0.54-0.14,0.88-0.24,1-0.33c0.13-0.08,0.21-0.19,0.26-0.33c0.05-0.14,0.05-0.3,0.02-0.48
		c-0.05-0.21-0.14-0.36-0.27-0.46c-0.13-0.1-0.3-0.15-0.5-0.13c-0.1,0.01-0.39,0.07-0.87,0.19c-0.37,0.09-0.55,0.14-0.92,0.25
		C39.32,11.57,39.41,11.87,39.59,12.49"/>
	<path class="st5" d="M44.7,15.05c-0.41-2.47-0.61-3.71-1.02-6.17c0.49-0.08,0.74-0.11,1.23-0.18c0.34,2.48,0.5,3.72,0.84,6.2
		C45.33,14.95,45.11,14.98,44.7,15.05"/>
	<path class="st5" d="M48.78,14.63c-0.12-2.5-0.18-3.75-0.3-6.25c0.5-0.02,0.75-0.03,1.25-0.04c0.02,0.98,0.03,1.48,0.05,2.46
		c0.92-0.02,1.38-0.01,2.29,0.03c0.04-0.98,0.06-1.48,0.1-2.46c0.5,0.02,0.75,0.03,1.24,0.07c-0.17,2.49-0.27,3.74-0.44,6.24
		c-0.42-0.03-0.63-0.04-1.06-0.06c0.05-1.09,0.07-1.64,0.11-2.73c-0.89-0.04-1.34-0.04-2.23-0.03c0.02,1.09,0.03,1.64,0.05,2.74
		C49.41,14.61,49.2,14.61,48.78,14.63"/>
	<path class="st5" d="M58.71,15.54c-0.45-0.1-0.68-0.15-1.13-0.24c-0.06-0.59-0.1-0.89-0.18-1.48c-0.86-0.16-1.29-0.23-2.15-0.34
		c-0.25,0.54-0.38,0.81-0.62,1.36c-0.45-0.05-0.67-0.07-1.12-0.11c1.03-2.43,1.62-3.62,2.93-5.97c0.52,0.07,0.78,0.12,1.3,0.21
		C58.29,11.59,58.48,12.91,58.71,15.54 M57.25,12.71c-0.14-0.97-0.22-1.45-0.39-2.42c-0.47,0.87-0.69,1.3-1.12,2.19
		C56.34,12.56,56.64,12.6,57.25,12.71"/>
	<path class="st5" d="M59.27,15.67c0.63-2.42,0.94-3.64,1.56-6.06C61.3,9.73,61.54,9.79,62,9.92c0.51,1.88,0.72,2.83,1.02,4.7
		c0.56-1.58,0.84-2.37,1.41-3.94c0.44,0.15,0.65,0.23,1.09,0.4c-0.91,2.34-1.36,3.51-2.27,5.84c-0.4-0.15-0.6-0.22-1-0.36
		c-0.26-1.82-0.44-2.73-0.9-4.56c-0.45,1.57-0.68,2.36-1.13,3.93C59.84,15.82,59.65,15.77,59.27,15.67"/>
	<path class="st5" d="M66.75,11.57c0.85,0.35,1.27,0.54,2.1,0.94c0.47,0.23,0.8,0.44,1.01,0.64c0.27,0.26,0.46,0.59,0.55,0.95
		c0.09,0.37,0.09,0.76,0.01,1.17c-0.09,0.41-0.28,0.87-0.58,1.38c-0.26,0.45-0.53,0.8-0.82,1.07c-0.35,0.33-0.7,0.55-1.07,0.68
		c-0.27,0.1-0.57,0.12-0.91,0.08c-0.25-0.03-0.55-0.14-0.91-0.31c-0.73-0.35-1.09-0.52-1.83-0.82
		C65.27,15.03,65.77,13.87,66.75,11.57 M67.46,13.03c-0.7,1.51-1.04,2.26-1.74,3.77c0.3,0.14,0.45,0.21,0.74,0.35
		c0.28,0.13,0.49,0.21,0.63,0.24c0.18,0.03,0.36,0.03,0.52-0.03c0.16-0.05,0.34-0.18,0.54-0.4c0.2-0.21,0.42-0.53,0.65-0.96
		c0.23-0.43,0.37-0.77,0.42-1.04c0.05-0.27,0.04-0.5-0.02-0.7c-0.07-0.2-0.19-0.37-0.37-0.52c-0.14-0.11-0.43-0.28-0.88-0.49
		C67.76,13.17,67.66,13.12,67.46,13.03"/>
	<path class="st5" d="M73.01,22.6c-0.37-0.31-0.55-0.46-0.93-0.75c0.2-0.57,0.29-0.85,0.48-1.42c-0.72-0.54-1.08-0.8-1.83-1.28
		c-0.47,0.38-0.7,0.56-1.16,0.95c-0.38-0.25-0.58-0.37-0.97-0.6c2-1.73,3.07-2.55,5.29-4.08c0.45,0.3,0.67,0.46,1.11,0.78
		C74.34,18.82,73.95,20.11,73.01,22.6 M72.9,19.36c0.29-0.94,0.43-1.41,0.69-2.37c-0.81,0.57-1.2,0.87-1.98,1.47
		C72.13,18.81,72.39,18.99,72.9,19.36"/>
	<path class="st5" d="M74.01,23.46c0.7-0.79,1.06-1.18,1.76-1.97c0.33-1.66,0.45-2.51,0.62-4.23c0.47,0.37,0.7,0.57,1.16,0.96
		c-0.18,1.15-0.3,1.72-0.55,2.84c1.08-0.35,1.63-0.51,2.76-0.79c0.43,0.43,0.64,0.65,1.05,1.09c-1.71,0.29-2.55,0.48-4.18,0.94
		c-0.72,0.77-1.09,1.15-1.82,1.91C74.5,23.9,74.34,23.75,74.01,23.46"/>
	<path class="st5" d="M79.33,29.51c-0.29-0.42-0.43-0.62-0.73-1.02c0.33-0.5,0.5-0.76,0.82-1.27c-0.58-0.75-0.87-1.11-1.49-1.81
		c-0.55,0.23-0.83,0.36-1.37,0.6c-0.32-0.36-0.48-0.53-0.81-0.87c2.39-1.14,3.64-1.64,6.2-2.49c0.37,0.43,0.55,0.65,0.9,1.09
		C81.57,26.14,80.86,27.3,79.33,29.51 M80.01,26.25c0.52-0.84,0.78-1.27,1.26-2.14c-0.93,0.33-1.39,0.51-2.3,0.87
		C79.39,25.47,79.6,25.73,80.01,26.25"/>
	<path class="st5" d="M79.69,30.03c2.08-1.41,3.11-2.11,5.18-3.52c0.3,0.45,0.44,0.67,0.72,1.13c-0.81,1.85-1.27,2.75-2.25,4.46
		c1.47-0.8,2.21-1.19,3.68-1.99c0.25,0.47,0.37,0.7,0.6,1.18c-2.23,1.12-3.35,1.68-5.59,2.8c-0.22-0.44-0.33-0.66-0.55-1.08
		c0.98-1.63,1.44-2.48,2.26-4.25c-1.38,0.88-2.07,1.32-3.45,2.19C80.04,30.57,79.93,30.39,79.69,30.03"/>
	<path class="st5" d="M82.56,35.23c2.28-1.04,3.42-1.56,5.69-2.6c0.24,0.53,0.36,0.8,0.58,1.34c-2.31,0.96-3.46,1.44-5.78,2.39
		C82.86,35.9,82.76,35.68,82.56,35.23"/>
	<path class="st5" d="M48.66,69.3c0.49-0.48,2.25-0.44,2.78,0c0.57,0.48,0.44,2.91,0.44,2.91s1.02,1.31,0.99,1.82
		c-0.06,0.98-1.89,2.72-2.89,2.71c-1.02,0-2.85-1.79-2.89-2.78c-0.03-0.54,1.02-1.89,1.02-1.89S48.14,69.81,48.66,69.3 M48.7,72.22
		c0,0-0.72,1.12-0.71,1.55c0.03,0.81,1.29,2.28,1.99,2.29c0.69,0,1.95-1.43,1.99-2.23c0.02-0.42-0.68-1.5-0.68-1.5s0.1-2-0.3-2.4
		c-0.36-0.37-1.57-0.39-1.91,0C48.73,70.34,48.7,72.22,48.7,72.22"/>
	<path class="st4" d="M53.83,60.1L53.83,60.1C53.83,60.1,53.83,60.12,53.83,60.1"/>
	<path class="st4" d="M52.32,57.43c-0.86-1.38-1.72-2.97-2.31-4.85c-0.73,1.94-0.31,3.83,0.05,5.46c0.42,1.85,0.85,3.73-0.12,6.63
		c-0.35,1.06-1.27,0.35-1.01-0.28c1.62-3.79-0.33-7.38-0.82-8.43c-0.38,1.34-1.44,2.85-2.02,4.14c-0.79,1.78-1.1,4.07,0.02,5.74
		c0.21,0.32,0.47,0.61,0.8,0.88c0.25,0.21,0.54,0.4,0.86,0.57c0.19-0.13,0.41-0.24,0.63-0.33c0.06-0.03,0.13-0.06,0.2-0.08
		c0.42-0.15,0.88-0.24,1.35-0.24c0.68,0,1.33,0.17,1.89,0.47c0.1,0.05,0.2,0.12,0.3,0.18c2.05-1.08,2.56-3.03,2.32-4.91
		c-0.05-0.4-0.13-0.79-0.24-1.17c-0.11-0.39-0.25-0.76-0.4-1.11v0v0C53.42,59.18,52.88,58.31,52.32,57.43"/>
	<path class="st6" d="M50.51,50.1c0.49,3.58,1.68,4.93,2.78,6.81c0.57,0.91,1.12,1.8,1.56,2.78c0,0.01,0,0.01,0.01,0.02
		c0-0.01,0-0.01,0-0.01v0.01c0.18,0.39,0.33,0.81,0.45,1.23c0.12,0.43,0.22,0.87,0.28,1.31c0.31,2.36-0.41,4.82-3.25,6.1l-0.33,0.15
		l-0.28-0.23c-0.07-0.06-0.14-0.11-0.2-0.15c-0.06-0.05-0.14-0.09-0.22-0.13c-0.39-0.21-0.85-0.33-1.34-0.33
		c-0.34,0-0.66,0.06-0.96,0.17c-0.05,0.01-0.09,0.04-0.14,0.05c-0.24,0.11-0.46,0.24-0.66,0.4l-0.28,0.22l-0.33-0.15l-0.01-0.01
		c-0.54-0.25-1.01-0.54-1.41-0.87c-0.4-0.33-0.73-0.7-0.99-1.1c-1.33-2-1.01-4.64-0.1-6.67c0.75-1.67,2.08-3.05,2.43-5.15
		c0.13-0.74,0.26-1.53,0.92-0.25c0.09,0.18,0.22,0.42,0.33,0.8c-0.34-1.32,0.68-4.15,1.04-5.1C50.12,49.16,50.42,48.91,50.51,50.1"
		/>
	<path class="st5" d="M51.93,68.92l-0.45-0.36c-0.06-0.05-0.12-0.09-0.17-0.13l-0.02-0.01c-0.04-0.03-0.09-0.06-0.15-0.09
		l-0.03-0.02c-0.6-0.32-1.35-0.37-2-0.14c-0.02,0.01-0.04,0.01-0.05,0.02c-0.03,0.01-0.05,0.02-0.08,0.03
		c-0.21,0.09-0.39,0.21-0.56,0.34l-0.45,0.36l-0.57-0.25c-0.54-0.25-1.03-0.55-1.46-0.91c-0.42-0.34-0.78-0.74-1.06-1.18
		c-1.22-1.84-1.27-4.46-0.13-7.02c0.27-0.61,0.62-1.18,0.95-1.73c0.61-1,1.23-2.04,1.45-3.34c0.1-0.61,0.21-1.23,0.72-1.23
		c0.2,0,0.37,0.12,0.53,0.32c0.2-1.36,0.76-2.93,1.06-3.71c0.22-0.56,0.43-0.94,0.79-0.94c0.52,0,0.57,0.73,0.6,1.13
		c0.4,2.89,1.26,4.27,2.16,5.74c0.19,0.3,0.38,0.61,0.57,0.93c0.52,0.82,1.05,1.69,1.49,2.61h0.01l0.06,0.16l0.05,0.05v0.07
		c0.18,0.4,0.32,0.81,0.43,1.21c0.13,0.45,0.23,0.91,0.29,1.36c0.22,1.73,0.07,4.88-3.45,6.47L51.93,68.92z M51.71,67.83
		c0.07,0.05,0.15,0.11,0.23,0.17l0.1,0.08l0.13-0.06c3.1-1.4,3.23-4.19,3.04-5.73c-0.05-0.42-0.14-0.84-0.27-1.26
		c-0.11-0.39-0.25-0.78-0.42-1.17l-0.1-0.14l0.02-0.04c-0.42-0.9-0.93-1.72-1.47-2.59c-0.19-0.32-0.38-0.63-0.56-0.92
		c-0.91-1.46-1.85-2.98-2.27-6.03l0-0.03c0-0.01,0-0.03,0-0.04c-0.01,0.01-0.01,0.02-0.01,0.04c-0.32,0.83-1.35,3.65-1.03,4.88
		l-0.69,0.19c-0.1-0.34-0.21-0.55-0.3-0.73c-0.07-0.13-0.12-0.23-0.17-0.3c-0.03,0.15-0.06,0.32-0.08,0.44
		c-0.24,1.43-0.9,2.53-1.54,3.59c-0.34,0.56-0.66,1.09-0.91,1.66c-1.04,2.33-1.02,4.7,0.07,6.33c0.25,0.38,0.56,0.72,0.92,1.02
		c0.39,0.32,0.84,0.6,1.33,0.82l0.14,0.06L47.98,68c0.22-0.18,0.47-0.33,0.74-0.45l0.04-0.01c0.02-0.01,0.03-0.01,0.05-0.02
		c0.03-0.01,0.06-0.03,0.09-0.04c0.34-0.12,0.7-0.18,1.07-0.18c0.52,0,1.05,0.13,1.5,0.37l0.05,0.03
		C51.58,67.75,51.65,67.79,51.71,67.83"/>
	<path class="st5" d="M48.99,54.41c0,0,1.65,3.39,1.84,5.23c0.18,1.7-1.66,5.23-1.66,5.23s0.9-3.29,0.78-5.04
		c-0.11-1.54-1.54-4.64-1.54-4.64L48.99,54.41z"/>
</g>
</svg>
